<?xml version="1.0" standalone="no"?>
<!DOCTYPE svg PUBLIC "-//W3C//DTD SVG 20010904//EN"
 "http://www.w3.org/TR/2001/REC-SVG-20010904/DTD/svg10.dtd">
<svg version="1.0" xmlns="http://www.w3.org/2000/svg"
 width="96.000000pt" height="96.000000pt" viewBox="0 0 96.000000 96.000000"
 preserveAspectRatio="xMidYMid meet">
<metadata>
Created by potrace 1.14, written by Peter Selinger 2001-2017
</metadata>
<g transform="translate(0.000000,96.000000) scale(0.100000,-0.100000)"
fill="#000000" stroke="none">
<path d="M400 929 c-238 -41 -411 -281 -372 -516 57 -346 460 -504 733 -289
184 145 225 419 90 616 -95 140 -283 218 -451 189z m156 -198 c27 -12 45 -29
53 -50 22 -52 7 -94 -60 -168 -55 -61 -60 -70 -57 -105 3 -34 1 -38 -19 -38
-26 0 -37 28 -28 70 3 16 31 56 61 90 65 73 74 101 47 138 -25 34 -95 42 -143
17 l-31 -16 3 27 c6 49 100 68 174 35z m-52 -457 c9 -8 16 -19 16 -24 0 -11
-29 -40 -40 -40 -9 0 -40 28 -40 36 0 3 5 14 10 25 13 23 33 24 54 3z"/>
</g>
</svg>
